<?xml version="1.0" encoding="utf-8"?>
<!DOCTYPE svg PUBLIC "-//W3C//DTD SVG 1.1//EN" "http://www.w3.org/Graphics/SVG/1.1/DTD/svg11.dtd">
<svg version="1.1" id="Layer_1" xmlns="http://www.w3.org/2000/svg" xmlns:xlink="http://www.w3.org/1999/xlink" x="0px" y="0px" viewBox="0 0 305.8 494.7"
	 style="enable-background:new 0 0 305.8 494.7;" xml:space="preserve">
	<g>
		<g>
			<path d="M190.4,177.2c-7.6,21-15.2,41.8-22.5,61.9c-7.7-0.8-14.7-2.4-21.7-2c-19.2,0.9-31.4,11.6-37.8,29.2
				c-12.6,34.2-25.2,68.5-37.4,102.8c-5.8,16.3-2.9,31.9,9.7,43.7c14.4,13.5,31.9,18.8,51.2,10.7c14.5-6.1,20.9-18.9,25.8-33.1
				c5.1-14.7,10.5-29.4,17.3-43.3c5.8-11.8,21.7-17.5,34.5-14.7c14.3,3.2,24.5,14.6,26.8,28.1c1.9,10.9-2.6,20.1-5.8,29.6
				c-4,12-8.3,23.9-13.3,35.5c-17.4,40.1-47.6,64.5-91.4,68.5c-46.6,4.3-83.7-14.2-109.2-53.4C2,418.5-3.5,393,2.2,366.8
				c4.2-19,11.3-37.5,17.8-56c8.9-25.5,17.8-51.1,27.8-76.2c9.7-24.2,27.1-42.1,50.3-53.9c26.9-13.6,55.1-16.3,84.1-7.2
				C184.8,174.4,187.3,175.8,190.4,177.2z"/>
			<path d="M115.7,318.3c7-19.3,14-38.3,20.7-57.4c1.4-3.9,2.5-5.4,7.4-4c18.5,5.3,34.7,0.6,47-14.3c3.8-4.6,6-10.7,8.1-16.4
				c12.3-33.4,24.3-66.8,36.5-100.2c7.6-20.7-3.5-45-24.2-52.9c-8.9-3.4-17.7-5.8-27.6-3.7C168,72.7,157.5,81.5,152,96.5
				c-4.9,13.6-10,27.1-14.9,40.7c-9.3,25.6-38.3,32.8-57.6,13.7c-9.2-9.1-12.1-20.9-8-33.3c6.1-18.3,12.2-36.8,20.2-54.3
				c8.1-17.9,20.7-33,37.4-43.7c36.6-23.5,75.2-26,114.1-6.8c38.1,18.8,59,50.2,62.4,93.1c1.6,20.2-4.2,38.6-11,57.1
				c-10.1,27.5-20.8,54.9-30.1,82.7c-8.5,25.5-22.5,46.6-44.5,62.1c-14.4,10.1-30.5,16.2-47.8,18.5c-17.9,2.4-35.5,0.6-52.5-6
				C118.3,319.7,117,318.9,115.7,318.3z"/>
		</g>
	</g>
</svg>
