<?xml version="1.0" encoding="utf-8"?>
<!DOCTYPE svg PUBLIC "-//W3C//DTD SVG 1.1//EN" "http://www.w3.org/Graphics/SVG/1.1/DTD/svg11.dtd">
<svg version="1.1" id="Layer_1" xmlns="http://www.w3.org/2000/svg" xmlns:xlink="http://www.w3.org/1999/xlink" x="0px" y="0px" viewBox="0 0 58 60.1"
	 style="enable-background:new 0 0 58 60.1;" xml:space="preserve">
<style type="text/css">
	.st0{fill:none;stroke:#FFFFFF;stroke-width:3;}
	.st1{fill:#FFFFFF;}
</style>
	<g>
		<g>
			<g>
				<g>
					<g>
						<polyline class="st0" points="42.6,18.5 55.9,58.6 43.3,58.6 39.7,49.6 18.9,49.6 15.4,58.6 2.1,58.6 6.7,46.2"/>
						<g>
							<path class="st1" d="M38.9,19.9c-0.7-2.1,0.4-4.3,2.5-5c2.1-0.7,4.3,0.4,5,2.5c0.7,2.1-0.4,4.3-2.5,5
								C41.8,23.1,39.6,22,38.9,19.9z"/>
						</g>
						<g>
							<path class="st1" d="M10.3,47.7c0.7-2-0.3-4.3-2.4-5.1c-2-0.7-4.3,0.3-5.1,2.4c-0.7,2,0.3,4.3,2.4,5.1
								C7.3,50.8,9.6,49.8,10.3,47.7z"/>
						</g>
					</g>
				</g>
			</g>
			<g>
				<g>
					<polyline class="st0" points="37.4,39.6 29.9,12.5 29.7,12.5 22.3,38.4 29,38.4"/>
					<g>
						<path class="st1" d="M41.1,38.3c0.6,2.1-0.7,4.3-2.8,4.9s-4.3-0.7-4.9-2.8c-0.6-2.1,0.7-4.3,2.8-4.9
							C38.4,35,40.5,36.2,41.1,38.3z"/>
					</g>
				</g>
			</g>
			<g>
				<g>
					<polyline class="st0" points="10.8,34.3 22.6,1.5 36.2,1.5 38.4,7.5"/>
					<g>
						<path class="st1" d="M14.5,35.5c-0.7,2.1-3,3.1-5.1,2.4c-2.1-0.7-3.1-3-2.4-5.1c0.7-2.1,3-3.1,5.1-2.4
							C14.2,31.2,15.3,33.4,14.5,35.5z"/>
					</g>
					<g>
						<path class="st1" d="M34.6,8.6c0.7,2.1,3,3.1,5.1,2.4c2.1-0.7,3.1-3,2.4-5.1c-0.7-2.1-3-3.1-5.1-2.4
							C34.9,4.3,33.9,6.6,34.6,8.6z"/>
					</g>
				</g>
			</g>
		</g>
	</g>
</svg>
