<?xml version="1.0" encoding="utf-8"?>
<!DOCTYPE svg PUBLIC "-//W3C//DTD SVG 1.1//EN" "http://www.w3.org/Graphics/SVG/1.1/DTD/svg11.dtd">
<svg version="1.1" id="Layer_1" xmlns="http://www.w3.org/2000/svg" xmlns:xlink="http://www.w3.org/1999/xlink" x="0px" y="0px" viewBox="0 0 89.3 91.2"
	 style="enable-background:new 0 0 89.3 91.2;" xml:space="preserve">
<style type="text/css">
	.st0{fill:#FFFFFF;}
</style>
	<g>
		<path d="M45.6,80.5c-19.2,0-34.9-15.6-34.9-34.9c0-19.2,15.7-34.9,34.9-34.9s34.9,15.6,34.9,34.9C80.5,64.8,64.8,80.5,45.6,80.5z
			 M45.6,16.7c-15.9,0-28.9,13-28.9,28.9s13,28.9,28.9,28.9s28.9-13,28.9-28.9S61.5,16.7,45.6,16.7z"/>
		<path d="M83,58.6c-5.4,15.5-20.1,26.6-37.4,26.6C23.8,85.2,6,67.4,6,45.6S23.8,6,45.6,6c16,0,29.8,9.5,36,23.2h6.5
			C81.5,12.1,65,0,45.6,0C20.5,0,0,20.5,0,45.6c0,25.1,20.5,45.6,45.6,45.6c20.6,0,38.1-13.8,43.7-32.6H83z"/>
		<polygon points="48.6,43.7 48.6,22.7 42.6,22.7 42.6,49.7 60.4,49.7 60.4,43.7 		"/>
		<path class="st0" d="M57.8,43.9"/>
	</g>
</svg>
